<mxfile host="app.diagrams.net" agent="Mozilla/5.0 (Windows NT 10.0; Win64; x64) AppleWebKit/537.36 (KHTML, like Gecko) Chrome/131.0.0.0 Safari/537.36 Edg/131.0.0.0" version="25.0.3">
  <diagram name="第 1 页" id="saeve1FtucRMH-h5ds1H">
    <mxGraphModel dx="2053" dy="674" grid="1" gridSize="10" guides="1" tooltips="1" connect="1" arrows="1" fold="1" page="1" pageScale="1" pageWidth="827" pageHeight="1169" math="0" shadow="0">
      <root>
        <mxCell id="0" />
        <mxCell id="1" parent="0" />
        <mxCell id="euB4mNMfvOpBj2LW8vCi-3" value="" style="edgeStyle=orthogonalEdgeStyle;rounded=0;orthogonalLoop=1;jettySize=auto;html=1;" edge="1" parent="1" source="euB4mNMfvOpBj2LW8vCi-1">
          <mxGeometry relative="1" as="geometry">
            <mxPoint x="-70" y="170" as="targetPoint" />
          </mxGeometry>
        </mxCell>
        <mxCell id="euB4mNMfvOpBj2LW8vCi-1" value="&lt;font style=&quot;font-size: 14px;&quot;&gt;原始图片&lt;/font&gt;" style="rounded=1;whiteSpace=wrap;html=1;" vertex="1" parent="1">
          <mxGeometry x="-270" y="140" width="120" height="60" as="geometry" />
        </mxCell>
        <mxCell id="euB4mNMfvOpBj2LW8vCi-34" style="edgeStyle=orthogonalEdgeStyle;rounded=0;orthogonalLoop=1;jettySize=auto;html=1;entryX=0;entryY=0.5;entryDx=0;entryDy=0;" edge="1" parent="1" source="euB4mNMfvOpBj2LW8vCi-4" target="euB4mNMfvOpBj2LW8vCi-6">
          <mxGeometry relative="1" as="geometry">
            <Array as="points">
              <mxPoint x="70" y="170" />
              <mxPoint x="70" y="240" />
            </Array>
          </mxGeometry>
        </mxCell>
        <mxCell id="euB4mNMfvOpBj2LW8vCi-4" value="&lt;font style=&quot;font-size: 14px;&quot;&gt;筛图&lt;/font&gt;" style="rounded=1;whiteSpace=wrap;html=1;" vertex="1" parent="1">
          <mxGeometry x="-70" y="140" width="120" height="60" as="geometry" />
        </mxCell>
        <mxCell id="euB4mNMfvOpBj2LW8vCi-5" value="&lt;font style=&quot;font-size: 14px;&quot;&gt;cv标注&lt;/font&gt;" style="rounded=1;whiteSpace=wrap;html=1;" vertex="1" parent="1">
          <mxGeometry x="94" y="60" width="120" height="60" as="geometry" />
        </mxCell>
        <mxCell id="euB4mNMfvOpBj2LW8vCi-11" style="edgeStyle=orthogonalEdgeStyle;rounded=0;orthogonalLoop=1;jettySize=auto;html=1;exitX=1;exitY=0.5;exitDx=0;exitDy=0;" edge="1" parent="1" source="euB4mNMfvOpBj2LW8vCi-6" target="euB4mNMfvOpBj2LW8vCi-7">
          <mxGeometry relative="1" as="geometry" />
        </mxCell>
        <mxCell id="euB4mNMfvOpBj2LW8vCi-6" value="&lt;font style=&quot;font-size: 14px;&quot;&gt;图文对&lt;/font&gt;" style="rounded=1;whiteSpace=wrap;html=1;" vertex="1" parent="1">
          <mxGeometry x="94" y="210" width="120" height="60" as="geometry" />
        </mxCell>
        <mxCell id="euB4mNMfvOpBj2LW8vCi-32" style="edgeStyle=orthogonalEdgeStyle;rounded=0;orthogonalLoop=1;jettySize=auto;html=1;exitX=1;exitY=0.5;exitDx=0;exitDy=0;entryX=0;entryY=0.5;entryDx=0;entryDy=0;" edge="1" parent="1" source="euB4mNMfvOpBj2LW8vCi-7" target="euB4mNMfvOpBj2LW8vCi-26">
          <mxGeometry relative="1" as="geometry" />
        </mxCell>
        <mxCell id="euB4mNMfvOpBj2LW8vCi-7" value="&lt;font style=&quot;font-size: 14px;&quot;&gt;前期单机部署（图片文件夹），后期要部署在n网&lt;/font&gt;" style="rounded=1;whiteSpace=wrap;html=1;" vertex="1" parent="1">
          <mxGeometry x="270" y="210" width="120" height="60" as="geometry" />
        </mxCell>
        <mxCell id="euB4mNMfvOpBj2LW8vCi-37" style="edgeStyle=orthogonalEdgeStyle;rounded=0;orthogonalLoop=1;jettySize=auto;html=1;exitX=0;exitY=0.5;exitDx=0;exitDy=0;entryX=1;entryY=0.5;entryDx=0;entryDy=0;" edge="1" parent="1" source="euB4mNMfvOpBj2LW8vCi-8" target="euB4mNMfvOpBj2LW8vCi-9">
          <mxGeometry relative="1" as="geometry" />
        </mxCell>
        <mxCell id="euB4mNMfvOpBj2LW8vCi-8" value="&lt;font style=&quot;font-size: 14px;&quot;&gt;工具上画框，填写场景&lt;/font&gt;" style="rounded=1;whiteSpace=wrap;html=1;" vertex="1" parent="1">
          <mxGeometry x="430" y="60" width="120" height="60" as="geometry" />
        </mxCell>
        <mxCell id="euB4mNMfvOpBj2LW8vCi-36" style="edgeStyle=orthogonalEdgeStyle;rounded=0;orthogonalLoop=1;jettySize=auto;html=1;exitX=0.5;exitY=1;exitDx=0;exitDy=0;entryX=0.5;entryY=0;entryDx=0;entryDy=0;" edge="1" parent="1" source="euB4mNMfvOpBj2LW8vCi-9" target="euB4mNMfvOpBj2LW8vCi-7">
          <mxGeometry relative="1" as="geometry" />
        </mxCell>
        <mxCell id="euB4mNMfvOpBj2LW8vCi-9" value="&lt;font style=&quot;font-size: 14px;&quot;&gt;跑预标注&lt;/font&gt;" style="rounded=1;whiteSpace=wrap;html=1;" vertex="1" parent="1">
          <mxGeometry x="270" y="60" width="120" height="60" as="geometry" />
        </mxCell>
        <mxCell id="euB4mNMfvOpBj2LW8vCi-17" value="没有" style="text;html=1;align=center;verticalAlign=middle;whiteSpace=wrap;rounded=0;" vertex="1" parent="1">
          <mxGeometry x="490" y="150" width="60" height="30" as="geometry" />
        </mxCell>
        <mxCell id="euB4mNMfvOpBj2LW8vCi-21" value="重新导入带json的文件夹" style="text;html=1;align=center;verticalAlign=middle;whiteSpace=wrap;rounded=0;" vertex="1" parent="1">
          <mxGeometry x="250" y="130" width="80" height="70" as="geometry" />
        </mxCell>
        <mxCell id="euB4mNMfvOpBj2LW8vCi-31" style="edgeStyle=orthogonalEdgeStyle;rounded=0;orthogonalLoop=1;jettySize=auto;html=1;exitX=1;exitY=0.5;exitDx=0;exitDy=0;entryX=0;entryY=0.5;entryDx=0;entryDy=0;" edge="1" parent="1" source="euB4mNMfvOpBj2LW8vCi-22" target="euB4mNMfvOpBj2LW8vCi-23">
          <mxGeometry relative="1" as="geometry" />
        </mxCell>
        <mxCell id="euB4mNMfvOpBj2LW8vCi-22" value="&lt;font style=&quot;font-size: 14px;&quot;&gt;在工具上质检修改&lt;/font&gt;" style="rounded=1;whiteSpace=wrap;html=1;" vertex="1" parent="1">
          <mxGeometry x="610" y="210" width="120" height="60" as="geometry" />
        </mxCell>
        <mxCell id="euB4mNMfvOpBj2LW8vCi-23" value="&lt;font style=&quot;font-size: 14px;&quot;&gt;交付图文对&lt;/font&gt;" style="rounded=1;whiteSpace=wrap;html=1;" vertex="1" parent="1">
          <mxGeometry x="820" y="210" width="120" height="60" as="geometry" />
        </mxCell>
        <mxCell id="euB4mNMfvOpBj2LW8vCi-27" value="" style="edgeStyle=orthogonalEdgeStyle;rounded=0;orthogonalLoop=1;jettySize=auto;html=1;" edge="1" parent="1" source="euB4mNMfvOpBj2LW8vCi-26" target="euB4mNMfvOpBj2LW8vCi-8">
          <mxGeometry relative="1" as="geometry" />
        </mxCell>
        <mxCell id="euB4mNMfvOpBj2LW8vCi-28" style="edgeStyle=orthogonalEdgeStyle;rounded=0;orthogonalLoop=1;jettySize=auto;html=1;exitX=1;exitY=0.5;exitDx=0;exitDy=0;entryX=0;entryY=0.5;entryDx=0;entryDy=0;" edge="1" parent="1" source="euB4mNMfvOpBj2LW8vCi-26" target="euB4mNMfvOpBj2LW8vCi-22">
          <mxGeometry relative="1" as="geometry" />
        </mxCell>
        <mxCell id="euB4mNMfvOpBj2LW8vCi-26" value="预标" style="rhombus;whiteSpace=wrap;html=1;" vertex="1" parent="1">
          <mxGeometry x="440" y="210" width="100" height="60" as="geometry" />
        </mxCell>
        <mxCell id="euB4mNMfvOpBj2LW8vCi-29" value="有" style="text;html=1;align=center;verticalAlign=middle;whiteSpace=wrap;rounded=0;" vertex="1" parent="1">
          <mxGeometry x="540" y="210" width="60" height="30" as="geometry" />
        </mxCell>
        <mxCell id="euB4mNMfvOpBj2LW8vCi-30" value="全量下载" style="text;html=1;align=center;verticalAlign=middle;whiteSpace=wrap;rounded=0;" vertex="1" parent="1">
          <mxGeometry x="740" y="190" width="80" height="70" as="geometry" />
        </mxCell>
        <mxCell id="euB4mNMfvOpBj2LW8vCi-35" value="" style="endArrow=classic;html=1;rounded=0;entryX=0;entryY=0.5;entryDx=0;entryDy=0;" edge="1" parent="1" target="euB4mNMfvOpBj2LW8vCi-5">
          <mxGeometry width="50" height="50" relative="1" as="geometry">
            <mxPoint x="50" y="170" as="sourcePoint" />
            <mxPoint x="100" y="120" as="targetPoint" />
            <Array as="points">
              <mxPoint x="70" y="170" />
              <mxPoint x="70" y="130" />
              <mxPoint x="70" y="90" />
            </Array>
          </mxGeometry>
        </mxCell>
      </root>
    </mxGraphModel>
  </diagram>
</mxfile>
